# xmcd
#
# Track frame offsets: 
#        150
#        13705
#        33658
#        49666
#        76165
#        94296
#        113354
#        127094
#        155959
#        178204
#        200599
#        224680
#
# Disc length: 3261 seconds
#
# Revision: 0
# Processed by: cddbd v1.5.2PL0 Copyright (c) Steve Scherf et al.
# Submitted via: ExactAudioCopy v1.0b3
#
DISCID=ad0cbb0c
DTITLE=Bruce McCabe - The Elevator Man
DYEAR=2011
DGENRE=Piano Blues
TTITLE0=Wake Up Call
TTITLE1=Fourty Four and Loaded
TTITLE2=Time Ran Out
TTITLE3=The Elevator Man
TTITLE4=No Way You Can Hurt Me Now
TTITLE5=No Hurry
TTITLE6=Wild Times
TTITLE7=Lawnmower Man
TTITLE8=Dead Love
TTITLE9=Wrong Side of the Road
TTITLE10=Probably Shoulda Toldya
TTITLE11=I'll Be There With You
EXTD=
EXTT0=
EXTT1=
EXTT2=
EXTT3=
EXTT4=
EXTT5=
EXTT6=
EXTT7=
EXTT8=
EXTT9=
EXTT10=
EXTT11=
PLAYORDER=
